<?xml version="1.0" encoding="utf-8"?>
<!-- Generator: Adobe Illustrator 25.0.1, SVG Export Plug-In . SVG Version: 6.00 Build 0)  -->
<svg version="1.1" id="_x3C_Layer_x3E_" xmlns="http://www.w3.org/2000/svg" xmlns:xlink="http://www.w3.org/1999/xlink" x="0px"
	 y="0px" viewBox="0 0 1417.32 1417.32" style="enable-background:new 0 0 1417.32 1417.32;" xml:space="preserve">
<style type="text/css">
	.st0{fill:none;stroke:#000000;stroke-width:0.8;}
	.st1{stroke:#000000;stroke-width:0.8;}
	.st2{fill:none;}
	.st3{font-family:'BankGothicBT-Medium';}
	.st4{font-size:21px;}
</style>
<g id="Layer_1">
	<polygon class="st0" points="186.86,195.44 167.47,195.44 167.47,192.37 174.84,191.87 174.84,162.46 167.47,161.96 167.47,158.89 
		186.86,158.89 186.86,161.96 179.52,162.46 179.52,191.87 186.86,192.37 	"/>
	<polygon class="st0" points="250.38,195.44 245.71,195.44 245.71,162.99 235.26,162.99 235.26,158.89 260.8,158.89 260.8,162.99 
		250.38,162.99 	"/>
	<polygon class="st0" points="308.73,195.44 308.73,158.89 313.4,158.89 313.4,191.29 329.28,191.29 329.28,195.44 	"/>
	<polygon class="st0" points="399.46,195.44 380.06,195.44 380.06,192.37 387.44,191.87 387.44,162.46 380.06,161.96 380.06,158.89 
		399.46,158.89 399.46,161.96 392.11,162.46 392.11,191.87 399.46,192.37 	"/>
	<path class="st0" d="M448.81,194.23v-4.45c3.52,1.43,6.96,2.15,10.35,2.15c5.83,0,8.75-2,8.75-6c0-1.73-0.59-3.07-1.77-4
		c-1.17-0.93-3.55-2.04-7.14-3.32c-3.46-1.21-5.95-2.67-7.46-4.36c-1.51-1.69-2.26-3.89-2.26-6.59c0-2.9,1.07-5.17,3.21-6.81
		c2.14-1.64,5.08-2.46,8.81-2.46c3.82,0,7.29,0.65,10.4,1.95l-1.6,4.1c-3.22-1.3-6.22-1.95-9-1.95c-4.88,0-7.32,1.74-7.32,5.23
		c0,1.7,0.54,3.07,1.64,4.1c1.09,1.04,3.34,2.14,6.76,3.33c4.1,1.46,6.84,2.98,8.21,4.54c1.38,1.56,2.06,3.56,2.06,6.01
		c0,3.2-1.15,5.71-3.46,7.54c-2.31,1.83-5.59,2.74-9.84,2.74C454.74,195.95,451.29,195.38,448.81,194.23z"/>
	<path class="st0" d="M531.51,191.9c2.88,0,5-1.21,6.34-3.62c1.34-2.42,2.01-6.12,2.01-11.12c0-5.05-0.68-8.77-2.04-11.14
		c-1.36-2.38-3.44-3.56-6.26-3.56c-5.62,0-8.43,4.9-8.43,14.7C523.14,186.99,525.93,191.9,531.51,191.9z M531.51,195.98
		c-8.87,0-13.3-6.29-13.3-18.88c0-12.5,4.45-18.75,13.35-18.75c4.27,0,7.54,1.63,9.81,4.89c2.27,3.26,3.41,7.9,3.41,13.91
		c0,6.02-1.15,10.66-3.45,13.92C539.03,194.34,535.76,195.98,531.51,195.98z"/>
	<polygon class="st0" points="604.71,195.44 600.04,195.44 600.04,162.99 589.59,162.99 589.59,158.89 615.14,158.89 615.14,162.99 
		604.71,162.99 	"/>
	<path class="st0" d="M671.07,170.24h4.42l3.62,13.02c1.02,3.65,1.62,6.21,1.8,7.68c0.03-0.88,0.57-6.04,1.62-15.48l1.75-16.57h4.25
		l-4.68,36.55h-4.75l-4.2-14.5c-0.67-2.3-1.22-4.65-1.65-7.05c-0.53,2.88-1.07,5.25-1.62,7.1l-3.9,14.45h-4.75l-5.07-36.55h4.25
		l2.2,16.57c0.38,2.93,0.72,6.09,1,9.45c0.28,3.37,0.43,5.38,0.43,6.03c0.4-2.52,0.98-5.12,1.75-7.8L671.07,170.24z"/>
	<polygon class="st0" points="754.62,195.44 733.57,195.44 733.57,158.89 754.62,158.89 754.62,162.99 738.22,162.99 738.22,174.29 
		753.64,174.29 753.64,178.34 738.22,178.34 738.22,191.34 754.62,191.34 	"/>
	<path class="st0" d="M826.92,195.44h-5.38l-14.5-30.25h-0.2c0.3,4.62,0.45,8.09,0.45,10.43v19.82H803v-36.55h5.32l14.45,30.1h0.15
		c-0.23-5.05-0.35-8.42-0.35-10.1v-20h4.35V195.44z"/>
	<polygon class="st0" points="888.18,195.44 883.5,195.44 883.5,162.99 873.05,162.99 873.05,158.89 898.6,158.89 898.6,162.99 
		888.18,162.99 	"/>
	<polygon class="st0" points="956.66,177.37 966.18,158.89 971.21,158.89 959.03,181.21 959.03,195.44 954.35,195.44 954.35,181.46 
		942.18,158.89 947.25,158.89 	"/>
	<path class="st0" d="M1098.44,333.64c2.88,0,5-1.21,6.34-3.62c1.34-2.42,2.01-6.12,2.01-11.12c0-5.05-0.68-8.77-2.04-11.14
		c-1.36-2.38-3.45-3.56-6.26-3.56c-5.62,0-8.43,4.9-8.43,14.7C1090.06,328.72,1092.85,333.64,1098.44,333.64z M1098.44,337.71
		c-8.87,0-13.3-6.29-13.3-18.88c0-12.5,4.45-18.75,13.35-18.75c4.27,0,7.54,1.63,9.81,4.89c2.27,3.26,3.41,7.9,3.41,13.91
		c0,6.02-1.15,10.66-3.45,13.92C1105.96,336.08,1102.69,337.71,1098.44,337.71z"/>
	<path class="st0" d="M1181.25,337.17h-5.38l-14.5-30.25h-0.2c0.3,4.62,0.45,8.09,0.45,10.43v19.82h-4.3v-36.55h5.32l14.45,30.1
		h0.15c-0.23-5.05-0.35-8.42-0.35-10.1v-20h4.35V337.17z"/>
	<polygon class="st0" points="1250.68,337.17 1229.63,337.17 1229.63,300.62 1250.68,300.62 1250.68,304.72 1234.28,304.72 
		1234.28,316.02 1249.71,316.02 1249.71,320.07 1234.28,320.07 1234.28,333.07 1250.68,333.07 	"/>
	<polygon class="st0" points="1100.78,266.32 1096.1,266.32 1096.1,233.87 1085.65,233.87 1085.65,229.77 1111.2,229.77 
		1111.2,233.87 1100.78,233.87 	"/>
	<path class="st0" d="M1166.72,241.11h4.43l3.62,13.02c1.02,3.65,1.62,6.21,1.8,7.68c0.03-0.88,0.57-6.04,1.62-15.48l1.75-16.57
		h4.25l-4.68,36.55h-4.75l-4.2-14.5c-0.67-2.3-1.22-4.65-1.65-7.05c-0.53,2.88-1.07,5.25-1.62,7.1l-3.9,14.45h-4.75l-5.07-36.55
		h4.25l2.2,16.57c0.38,2.93,0.71,6.08,1,9.45c0.28,3.37,0.43,5.38,0.43,6.03c0.4-2.52,0.98-5.12,1.75-7.8L1166.72,241.11z"/>
	<path class="st0" d="M1240.17,262.77c2.88,0,5-1.21,6.34-3.62c1.34-2.42,2.01-6.12,2.01-11.12c0-5.05-0.68-8.77-2.04-11.14
		c-1.36-2.38-3.44-3.56-6.26-3.56c-5.62,0-8.43,4.9-8.43,14.7C1231.79,257.85,1234.59,262.77,1240.17,262.77z M1240.17,266.84
		c-8.87,0-13.3-6.29-13.3-18.88c0-12.5,4.45-18.75,13.35-18.75c4.27,0,7.54,1.63,9.81,4.89c2.27,3.26,3.41,7.89,3.41,13.91
		c0,6.02-1.15,10.66-3.45,13.92C1247.7,265.21,1244.42,266.84,1240.17,266.84z"/>
	<g>
		<polygon class="st0" points="179.51,549.77 174.84,549.77 174.84,517.32 164.39,517.32 164.39,513.22 189.94,513.22 
			189.94,517.32 179.51,517.32 		"/>
		<polygon class="st0" points="258.56,549.77 237.51,549.77 237.51,513.22 258.56,513.22 258.56,517.32 242.16,517.32 
			242.16,528.62 257.58,528.62 257.58,532.67 242.16,532.67 242.16,545.67 258.56,545.67 		"/>
		<path class="st0" d="M330.86,549.77h-5.38l-14.5-30.25h-0.2c0.3,4.62,0.45,8.09,0.45,10.43v19.82h-4.3v-36.55h5.33l14.45,30.1
			h0.15c-0.23-5.05-0.35-8.42-0.35-10.1v-20h4.35V549.77z"/>
	</g>
	<g>
		<polygon class="st0" points="533.85,337.17 529.17,337.17 529.17,304.72 518.72,304.72 518.72,300.62 544.27,300.62 
			544.27,304.72 533.85,304.72 		"/>
		<polygon class="st0" points="614.35,337.17 609.67,337.17 609.67,320.12 595.05,320.12 595.05,337.17 590.37,337.17 
			590.37,300.62 595.05,300.62 595.05,316.02 609.67,316.02 609.67,300.62 614.35,300.62 		"/>
		<polygon class="st0" points="682.93,337.17 663.53,337.17 663.53,334.1 670.9,333.6 670.9,304.2 663.53,303.7 663.53,300.62 
			682.93,300.62 682.93,303.7 675.58,304.2 675.58,333.6 682.93,334.1 		"/>
		<path class="st0" d="M736.46,318.12h4.1c2.85,0,4.95-0.55,6.3-1.65c1.35-1.1,2.02-2.85,2.02-5.25c0-2.35-0.67-4.04-2-5.08
			c-1.33-1.03-3.48-1.55-6.45-1.55h-3.98V318.12z M736.46,322.07v15.1h-4.67v-36.55h8.92c8.67,0,13,3.46,13,10.38
			c0,4.78-2.41,8.05-7.22,9.8l9.92,16.38h-5.47l-8.75-15.1H736.46z"/>
		<polygon class="st0" points="817.31,337.17 812.64,337.17 812.64,304.72 802.19,304.72 802.19,300.62 827.74,300.62 
			827.74,304.72 817.31,304.72 		"/>
		<polygon class="st0" points="896.35,337.17 875.3,337.17 875.3,300.62 896.35,300.62 896.35,304.72 879.95,304.72 879.95,316.02 
			895.38,316.02 895.38,320.07 879.95,320.07 879.95,333.07 896.35,333.07 		"/>
		<polygon class="st0" points="967.22,337.17 946.17,337.17 946.17,300.62 967.22,300.62 967.22,304.72 950.82,304.72 
			950.82,316.02 966.24,316.02 966.24,320.07 950.82,320.07 950.82,333.07 967.22,333.07 		"/>
		<path class="st0" d="M1039.52,337.17h-5.38l-14.5-30.25h-0.2c0.3,4.62,0.45,8.09,0.45,10.43v19.82h-4.3v-36.55h5.32l14.45,30.1
			h0.15c-0.23-5.05-0.35-8.42-0.35-10.1v-20h4.35V337.17z"/>
	</g>
	<polygon class="st0" points="809.1,266.31 804.45,266.31 804.45,229.76 825.47,229.76 825.47,233.85 809.1,233.85 809.1,246.76 
		824.52,246.76 824.52,250.85 809.1,250.85 	"/>
	<polygon class="st0" points="895.53,266.31 876.13,266.31 876.13,263.23 883.5,262.73 883.5,233.33 876.13,232.83 876.13,229.76 
		895.53,229.76 895.53,232.83 888.18,233.33 888.18,262.73 895.53,263.23 	"/>
	<path class="st0" d="M966.26,229.76h4.97l-12.22,36.55h-4.68l-12.18-36.55h4.9l7.38,23.18c0.68,2.12,1.42,4.9,2.2,8.35
		c0.52-2.41,1.29-5.25,2.32-8.5L966.26,229.76z"/>
	<polygon class="st0" points="1038.19,266.31 1017.14,266.31 1017.14,229.76 1038.19,229.76 1038.19,233.85 1021.79,233.85 
		1021.79,245.16 1037.21,245.16 1037.21,249.21 1021.79,249.21 1021.79,262.21 1038.19,262.21 	"/>
	<g>
		<polygon class="st0" points="896.35,408.04 875.3,408.04 875.3,371.49 896.35,371.49 896.35,375.59 879.95,375.59 879.95,386.89 
			895.38,386.89 895.38,390.94 879.95,390.94 879.95,403.94 896.35,403.94 		"/>
		<polygon class="st0" points="946.42,408.04 946.42,371.49 951.09,371.49 951.09,403.89 966.97,403.89 966.97,408.04 		"/>
		<polygon class="st0" points="1038.08,408.04 1017.03,408.04 1017.03,371.49 1038.08,371.49 1038.08,375.59 1021.69,375.59 
			1021.69,386.89 1037.11,386.89 1037.11,390.94 1021.69,390.94 1021.69,403.94 1038.08,403.94 		"/>
		<path class="st0" d="M1107.99,371.49h4.98l-12.23,36.55h-4.68l-12.17-36.55h4.9l7.38,23.18c0.68,2.12,1.42,4.9,2.2,8.35
			c0.52-2.41,1.29-5.25,2.32-8.5L1107.99,371.49z"/>
		<polygon class="st0" points="1179.82,408.04 1158.77,408.04 1158.77,371.49 1179.82,371.49 1179.82,375.59 1163.41,375.59 
			1163.41,386.89 1178.84,386.89 1178.84,390.94 1163.41,390.94 1163.41,403.94 1179.82,403.94 		"/>
		<path class="st0" d="M1252.12,408.04h-5.38l-14.5-30.25h-0.2c0.3,4.62,0.45,8.09,0.45,10.42v19.83h-4.3v-36.55h5.32l14.45,30.1
			h0.15c-0.23-5.05-0.35-8.41-0.35-10.1v-20h4.35V408.04z"/>
	</g>
	<polygon class="st0" points="1021.85,195.44 1017.2,195.44 1017.2,158.89 1038.23,158.89 1038.23,162.99 1021.85,162.99 
		1021.85,175.89 1037.28,175.89 1037.28,179.99 1021.85,179.99 	"/>
	<path class="st0" d="M1098.44,191.9c2.88,0,5-1.21,6.34-3.62c1.34-2.41,2.01-6.12,2.01-11.12c0-5.05-0.68-8.76-2.04-11.14
		c-1.36-2.38-3.45-3.56-6.26-3.56c-5.62,0-8.43,4.9-8.43,14.7C1090.06,186.99,1092.85,191.9,1098.44,191.9z M1098.44,195.98
		c-8.87,0-13.3-6.29-13.3-18.88c0-12.5,4.45-18.75,13.35-18.75c4.27,0,7.54,1.63,9.81,4.89c2.27,3.26,3.41,7.89,3.41,13.91
		c0,6.02-1.15,10.66-3.45,13.93C1105.96,194.34,1102.69,195.98,1098.44,195.98z"/>
	<path class="st0" d="M1181.53,158.62v23.7c0,4.34-1.05,7.65-3.15,9.95c-2.1,2.3-5.18,3.45-9.25,3.45c-8.05,0-12.07-4.5-12.07-13.5
		v-23.55h4.65v23.3c0,6.45,2.56,9.67,7.68,9.67c4.92,0,7.42-3.24,7.5-9.72v-23.3H1181.53z"/>
	<path class="st0" d="M1232.52,176.39h4.1c2.85,0,4.95-0.55,6.3-1.65c1.35-1.1,2.03-2.85,2.03-5.25c0-2.35-0.67-4.04-2-5.07
		c-1.34-1.03-3.48-1.55-6.45-1.55h-3.98V176.39z M1232.52,180.34v15.1h-4.68v-36.55h8.93c8.67,0,13,3.46,13,10.38
		c0,4.78-2.41,8.05-7.23,9.8l9.93,16.38H1247l-8.75-15.1H1232.52z"/>
	<polygon class="st0" points="179.64,337.17 174.96,337.17 174.96,304.72 164.52,304.72 164.52,300.62 190.07,300.62 190.07,304.72 
		179.64,304.72 	"/>
	<polygon class="st0" points="260.14,337.17 255.47,337.17 255.47,320.12 240.85,320.12 240.85,337.17 236.17,337.17 236.17,300.62 
		240.85,300.62 240.85,316.02 255.47,316.02 255.47,300.62 260.14,300.62 	"/>
	<path class="st0" d="M311.39,318.12h4.1c2.85,0,4.95-0.55,6.3-1.65c1.35-1.1,2.03-2.85,2.03-5.25c0-2.35-0.67-4.04-2-5.07
		c-1.34-1.03-3.48-1.55-6.45-1.55h-3.98V318.12z M311.39,322.07v15.1h-4.68v-36.55h8.93c8.67,0,13,3.46,13,10.38
		c0,4.78-2.41,8.05-7.23,9.8l9.93,16.37h-5.47l-8.75-15.1H311.39z"/>
	<polygon class="st0" points="400.41,337.17 379.36,337.17 379.36,300.62 400.41,300.62 400.41,304.72 384.02,304.72 384.02,316.02 
		399.44,316.02 399.44,320.07 384.02,320.07 384.02,333.07 400.41,333.07 	"/>
	<polygon class="st0" points="471.28,337.17 450.23,337.17 450.23,300.62 471.28,300.62 471.28,304.72 454.88,304.72 454.88,316.02 
		470.31,316.02 470.31,320.07 454.88,320.07 454.88,333.07 471.28,333.07 	"/>
	<g>
		<path class="st0" d="M756.06,478.9h-5.38l-14.5-30.25h-0.2c0.3,4.61,0.45,8.09,0.45,10.42v19.83h-4.3v-36.55h5.33l14.45,30.1h0.15
			c-0.23-5.05-0.35-8.41-0.35-10.1v-20h4.35V478.9z"/>
		<polygon class="st0" points="824.66,478.9 805.26,478.9 805.26,475.83 812.63,475.33 812.63,445.93 805.26,445.43 805.26,442.35 
			824.66,442.35 824.66,445.43 817.31,445.93 817.31,475.33 824.66,475.83 		"/>
		<path class="st0" d="M897.79,478.9h-5.38l-14.5-30.25h-0.2c0.3,4.61,0.45,8.09,0.45,10.42v19.83h-4.3v-36.55h5.33l14.45,30.1h0.15
			c-0.23-5.05-0.35-8.41-0.35-10.1v-20h4.35V478.9z"/>
		<polygon class="st0" points="967.22,478.9 946.17,478.9 946.17,442.35 967.22,442.35 967.22,446.45 950.82,446.45 950.82,457.75 
			966.24,457.75 966.24,461.8 950.82,461.8 950.82,474.8 967.22,474.8 		"/>
		<polygon class="st0" points="1029.91,478.9 1025.23,478.9 1025.23,446.45 1014.78,446.45 1014.78,442.35 1040.33,442.35 
			1040.33,446.45 1029.91,446.45 		"/>
		<polygon class="st0" points="1108.95,478.9 1087.9,478.9 1087.9,442.35 1108.95,442.35 1108.95,446.45 1092.55,446.45 
			1092.55,457.75 1107.97,457.75 1107.97,461.8 1092.55,461.8 1092.55,474.8 1108.95,474.8 		"/>
		<polygon class="st0" points="1179.82,478.9 1158.77,478.9 1158.77,442.35 1179.82,442.35 1179.82,446.45 1163.41,446.45 
			1163.41,457.75 1178.84,457.75 1178.84,461.8 1163.41,461.8 1163.41,474.8 1179.82,474.8 		"/>
		<path class="st0" d="M1252.12,478.9h-5.38l-14.5-30.25h-0.2c0.3,4.61,0.45,8.09,0.45,10.42v19.83h-4.3v-36.55h5.32l14.45,30.1
			h0.15c-0.23-5.05-0.35-8.41-0.35-10.1v-20h4.35V478.9z"/>
	</g>
	<g>
		<polygon class="st0" points="313.03,408.04 308.39,408.04 308.39,371.49 329.41,371.49 329.41,375.59 313.03,375.59 
			313.03,388.49 328.46,388.49 328.46,392.59 313.03,392.59 		"/>
		<path class="st0" d="M389.77,404.5c2.88,0,5-1.21,6.34-3.62c1.34-2.41,2.01-6.12,2.01-11.12c0-5.05-0.68-8.76-2.04-11.14
			c-1.36-2.38-3.45-3.56-6.26-3.56c-5.62,0-8.43,4.9-8.43,14.7C381.4,399.58,384.19,404.5,389.77,404.5z M389.77,408.58
			c-8.87,0-13.3-6.29-13.3-18.88c0-12.5,4.45-18.75,13.35-18.75c4.27,0,7.54,1.63,9.81,4.89c2.27,3.26,3.41,7.89,3.41,13.91
			c0,6.02-1.15,10.66-3.45,13.93C397.3,406.94,394.02,408.58,389.77,408.58z"/>
		<path class="st0" d="M472.87,371.21v23.7c0,4.33-1.05,7.65-3.15,9.95c-2.1,2.3-5.18,3.45-9.25,3.45c-8.05,0-12.07-4.5-12.07-13.5
			v-23.55h4.65v23.3c0,6.45,2.56,9.67,7.68,9.67c4.92,0,7.42-3.24,7.5-9.72v-23.3H472.87z"/>
		<path class="st0" d="M523.86,388.99h4.1c2.85,0,4.95-0.55,6.3-1.65c1.35-1.1,2.03-2.85,2.03-5.25c0-2.35-0.67-4.04-2-5.07
			c-1.34-1.03-3.48-1.55-6.45-1.55h-3.97V388.99z M523.86,392.94v15.1h-4.68v-36.55h8.93c8.67,0,13,3.46,13,10.38
			c0,4.78-2.41,8.05-7.23,9.8l9.93,16.38h-5.48l-8.75-15.1H523.86z"/>
		<polygon class="st0" points="605.02,408.05 600.35,408.05 600.35,375.6 589.9,375.6 589.9,371.5 615.45,371.5 615.45,375.6 
			605.02,375.6 		"/>
		<polygon class="st0" points="683.75,408.04 662.7,408.04 662.7,371.49 683.75,371.49 683.75,375.59 667.36,375.59 667.36,386.89 
			682.78,386.89 682.78,390.94 667.36,390.94 667.36,403.94 683.75,403.94 		"/>
		<polygon class="st0" points="754.62,408.04 733.57,408.04 733.57,371.49 754.62,371.49 754.62,375.59 738.22,375.59 
			738.22,386.89 753.64,386.89 753.64,390.94 738.22,390.94 738.22,403.94 754.62,403.94 		"/>
		<path class="st0" d="M826.92,408.04h-5.38l-14.5-30.25h-0.2c0.3,4.61,0.45,8.09,0.45,10.42v19.83H803v-36.55h5.33l14.45,30.1h0.15
			c-0.24-5.05-0.35-8.41-0.35-10.1v-20h4.35V408.04z"/>
	</g>
	<path class="st0" d="M245.97,620.64l-6.95-32h-0.2c0.3,4.43,0.45,7.82,0.45,10.15v21.85h-3.78v-36.55h6.17l6.2,29.8h0.15l6.25-29.8
		h6.3v36.55h-3.83v-22.18c0-1.7,0.12-4.96,0.35-9.78h-0.2l-7.07,31.95H245.97z"/>
	<polygon class="st0" points="328.6,620.64 309.2,620.64 309.2,617.56 316.57,617.06 316.57,587.66 309.2,587.16 309.2,584.09 
		328.6,584.09 328.6,587.16 321.25,587.66 321.25,617.06 328.6,617.56 	"/>
	<path class="st0" d="M381.79,588.06v28.58h2.4c8.87,0,13.3-4.83,13.3-14.48c0-9.4-4.11-14.1-12.32-14.1H381.79z M377.11,620.64
		v-36.55h8.55c5.28,0,9.39,1.57,12.34,4.72c2.94,3.15,4.41,7.55,4.41,13.2c0,6.02-1.52,10.62-4.57,13.82
		c-3.05,3.2-7.45,4.8-13.2,4.8H377.11z"/>
	<path class="st0" d="M472.59,620.64h-5.38l-14.5-30.25h-0.2c0.3,4.61,0.45,8.09,0.45,10.42v19.83h-4.3v-36.55h5.32l14.45,30.1h0.15
		c-0.23-5.05-0.35-8.41-0.35-10.1v-20h4.35V620.64z"/>
	<polygon class="st0" points="541.2,620.64 521.8,620.64 521.8,617.56 529.17,617.06 529.17,587.66 521.8,587.16 521.8,584.09 
		541.2,584.09 541.2,587.16 533.85,587.66 533.85,617.06 541.2,617.56 	"/>
	<path class="st0" d="M604.03,601.35h10.55v17.93c-3.25,1.25-6.75,1.88-10.5,1.88c-4.36,0-7.78-1.66-10.23-4.99
		c-2.46-3.32-3.69-7.94-3.69-13.84c0-5.85,1.35-10.44,4.05-13.76c2.7-3.32,6.42-4.99,11.15-4.99c3.2,0,6.08,0.72,8.65,2.15
		l-1.8,4.05c-2.43-1.4-4.77-2.1-7-2.1c-3.2,0-5.69,1.3-7.47,3.89c-1.79,2.59-2.68,6.2-2.68,10.81c0,9.8,3.29,14.7,9.85,14.7
		c1.62,0,3.3-0.24,5.05-0.72v-10.9h-5.92V601.35z"/>
	<polygon class="st0" points="685.21,620.64 680.54,620.64 680.54,603.59 665.92,603.59 665.92,620.64 661.24,620.64 661.24,584.09 
		665.92,584.09 665.92,599.48 680.54,599.48 680.54,584.09 685.21,584.09 	"/>
	<polygon class="st0" points="746.45,620.64 741.77,620.64 741.77,588.18 731.32,588.18 731.32,584.09 756.87,584.09 756.87,588.18 
		746.45,588.18 	"/>
	<g>
		<path class="st0" d="M377.94,548.56v-4.45c3.52,1.43,6.97,2.15,10.35,2.15c5.83,0,8.75-2,8.75-6c0-1.74-0.59-3.07-1.76-4
			c-1.18-0.93-3.55-2.04-7.14-3.33c-3.47-1.22-5.96-2.67-7.47-4.36c-1.51-1.69-2.26-3.89-2.26-6.59c0-2.9,1.07-5.17,3.21-6.81
			c2.14-1.65,5.08-2.47,8.81-2.47c3.82,0,7.29,0.65,10.4,1.95l-1.6,4.1c-3.21-1.3-6.21-1.95-9-1.95c-4.88,0-7.32,1.74-7.32,5.22
			c0,1.7,0.55,3.07,1.64,4.1c1.09,1.03,3.35,2.14,6.76,3.32c4.1,1.47,6.84,2.98,8.21,4.54c1.38,1.56,2.06,3.56,2.06,6.01
			c0,3.2-1.16,5.71-3.46,7.54c-2.31,1.82-5.59,2.73-9.84,2.73C383.87,550.28,380.42,549.71,377.94,548.56z"/>
		<polygon class="st0" points="470.33,549.77 450.93,549.77 450.93,546.7 458.31,546.2 458.31,516.8 450.93,516.3 450.93,513.22 
			470.33,513.22 470.33,516.3 462.98,516.8 462.98,546.2 470.33,546.7 		"/>
		<polygon class="st0" points="545.51,549.8 540.23,549.8 531.36,533.92 522.21,549.8 517.48,549.8 528.81,530.7 518.26,513.25 
			523.23,513.25 531.51,527.22 539.86,513.25 544.63,513.25 534.09,530.55 		"/>
		<polygon class="st0" points="604.79,549.8 600.12,549.8 600.12,517.35 589.67,517.35 589.67,513.25 615.22,513.25 615.22,517.35 
			604.79,517.35 		"/>
		<polygon class="st0" points="683.75,549.8 662.7,549.8 662.7,513.25 683.75,513.25 683.75,517.35 667.35,517.35 667.35,528.65 
			682.78,528.65 682.78,532.7 667.35,532.7 667.35,545.7 683.75,545.7 		"/>
		<polygon class="st0" points="754.62,549.8 733.57,549.8 733.57,513.25 754.62,513.25 754.62,517.35 738.22,517.35 738.22,528.65 
			753.65,528.65 753.65,532.7 738.22,532.7 738.22,545.7 754.62,545.7 		"/>
		<path class="st0" d="M826.88,549.8h-5.38L807,519.55h-0.2c0.3,4.62,0.45,8.09,0.45,10.43v19.82h-4.3v-36.55h5.33l14.45,30.1h0.15
			c-0.23-5.05-0.35-8.41-0.35-10.1v-20h4.35V549.8z"/>
	</g>
	<g>
		<polygon class="st0" points="187.69,478.9 166.64,478.9 166.64,442.36 187.69,442.36 187.69,446.45 171.29,446.45 171.29,457.76 
			186.71,457.76 186.71,461.81 171.29,461.81 171.29,474.81 187.69,474.81 		"/>
		<polygon class="st0" points="257.73,478.9 238.33,478.9 238.33,475.83 245.71,475.33 245.71,445.93 238.33,445.43 238.33,442.36 
			257.73,442.36 257.73,445.43 250.38,445.93 250.38,475.33 257.73,475.83 		"/>
		<path class="st0" d="M320.56,459.62h10.55v17.92c-3.25,1.25-6.75,1.88-10.5,1.88c-4.37,0-7.78-1.66-10.24-4.98
			c-2.46-3.33-3.69-7.94-3.69-13.84c0-5.85,1.35-10.44,4.05-13.76c2.7-3.32,6.41-4.99,11.15-4.99c3.2,0,6.08,0.72,8.65,2.15
			l-1.8,4.05c-2.43-1.4-4.77-2.1-7-2.1c-3.2,0-5.69,1.3-7.48,3.89c-1.78,2.59-2.68,6.2-2.68,10.81c0,9.8,3.29,14.7,9.85,14.7
			c1.62,0,3.3-0.24,5.05-0.72v-10.9h-5.93V459.62z"/>
		<polygon class="st0" points="401.75,478.9 397.08,478.9 397.08,461.86 382.45,461.86 382.45,478.9 377.78,478.9 377.78,442.36 
			382.45,442.36 382.45,457.76 397.08,457.76 397.08,442.36 401.75,442.36 		"/>
		<polygon class="st0" points="462.98,478.9 458.3,478.9 458.3,446.45 447.85,446.45 447.85,442.36 473.41,442.36 473.41,446.45 
			462.98,446.45 		"/>
		<polygon class="st0" points="542.02,478.9 520.97,478.9 520.97,442.36 542.02,442.36 542.02,446.45 525.62,446.45 525.62,457.76 
			541.05,457.76 541.05,461.81 525.62,461.81 525.62,474.81 542.02,474.81 		"/>
		<polygon class="st0" points="612.89,478.9 591.84,478.9 591.84,442.36 612.89,442.36 612.89,446.45 596.49,446.45 596.49,457.76 
			611.91,457.76 611.91,461.81 596.49,461.81 596.49,474.81 612.89,474.81 		"/>
		<path class="st0" d="M685.19,478.9h-5.38l-14.5-30.25h-0.2c0.3,4.62,0.45,8.09,0.45,10.43v19.82h-4.3v-36.55h5.32l14.45,30.1h0.15
			c-0.23-5.05-0.35-8.41-0.35-10.1v-20h4.35V478.9z"/>
	</g>
	<path class="st0" d="M165.34,265.1v-4.45c3.52,1.43,6.97,2.15,10.35,2.15c5.83,0,8.75-2,8.75-6c0-1.74-0.59-3.07-1.76-4
		c-1.18-0.93-3.55-2.04-7.14-3.32c-3.47-1.22-5.96-2.67-7.47-4.36c-1.51-1.69-2.26-3.89-2.26-6.59c0-2.9,1.07-5.17,3.21-6.81
		c2.14-1.65,5.08-2.47,8.81-2.47c3.82,0,7.29,0.65,10.4,1.95l-1.6,4.1c-3.21-1.3-6.21-1.95-9-1.95c-4.88,0-7.32,1.74-7.32,5.22
		c0,1.7,0.55,3.07,1.64,4.1c1.09,1.03,3.35,2.14,6.76,3.32c4.1,1.47,6.84,2.98,8.21,4.54c1.38,1.56,2.06,3.56,2.06,6.01
		c0,3.2-1.16,5.71-3.46,7.54c-2.31,1.82-5.59,2.73-9.84,2.73C171.27,266.82,167.82,266.24,165.34,265.1z"/>
	<polygon class="st0" points="258.55,266.3 237.51,266.3 237.51,229.76 258.55,229.76 258.55,233.86 242.16,233.86 242.16,245.16 
		257.58,245.16 257.58,249.21 242.16,249.21 242.16,262.21 258.55,262.21 	"/>
	<path class="st0" d="M328.46,229.76h4.97l-12.22,36.55h-4.68l-12.18-36.55h4.9l7.38,23.17c0.68,2.12,1.42,4.9,2.2,8.35
		c0.52-2.42,1.29-5.25,2.32-8.5L328.46,229.76z"/>
	<polygon class="st0" points="400.29,266.3 379.24,266.3 379.24,229.76 400.29,229.76 400.29,233.86 383.89,233.86 383.89,245.16 
		399.32,245.16 399.32,249.21 383.89,249.21 383.89,262.21 400.29,262.21 	"/>
	<path class="st0" d="M472.59,266.3h-5.38l-14.5-30.25h-0.2c0.3,4.62,0.45,8.09,0.45,10.43v19.82h-4.3v-36.55h5.32l14.45,30.1h0.15
		c-0.23-5.05-0.35-8.41-0.35-10.1v-20h4.35V266.3z"/>
	<polygon class="st0" points="533.85,266.3 529.17,266.3 529.17,233.86 518.72,233.86 518.72,229.76 544.27,229.76 544.27,233.86 
		533.85,233.86 	"/>
	<polygon class="st0" points="612.89,266.3 591.84,266.3 591.84,229.76 612.89,229.76 612.89,233.86 596.49,233.86 596.49,245.16 
		611.91,245.16 611.91,249.21 596.49,249.21 596.49,262.21 612.89,262.21 	"/>
	<polygon class="st0" points="683.75,266.3 662.7,266.3 662.7,229.76 683.75,229.76 683.75,233.86 667.35,233.86 667.35,245.16 
		682.78,245.16 682.78,249.21 667.35,249.21 667.35,262.21 683.75,262.21 	"/>
	<path class="st0" d="M756.06,266.3h-5.38l-14.5-30.25h-0.2c0.3,4.62,0.45,8.09,0.45,10.43v19.82h-4.3v-36.55h5.33l14.45,30.1h0.15
		c-0.23-5.05-0.35-8.41-0.35-10.1v-20h4.35V266.3z"/>
	<g>
		<polygon class="st0" points="888.18,549.77 883.5,549.77 883.5,517.32 873.05,517.32 873.05,513.22 898.6,513.22 898.6,517.32 
			888.18,517.32 		"/>
		<path class="st0" d="M954.53,524.57h4.43l3.62,13.03c1.02,3.65,1.62,6.21,1.8,7.67c0.03-0.88,0.57-6.04,1.62-15.47l1.75-16.58
			h4.25l-4.68,36.55h-4.75l-4.2-14.5c-0.67-2.3-1.22-4.65-1.65-7.05c-0.53,2.88-1.08,5.25-1.62,7.1l-3.9,14.45h-4.75l-5.07-36.55
			h4.25l2.2,16.58c0.38,2.93,0.72,6.08,1,9.45c0.28,3.37,0.43,5.38,0.43,6.02c0.4-2.51,0.98-5.11,1.75-7.8L954.53,524.57z"/>
		<polygon class="st0" points="1038.08,549.77 1017.03,549.77 1017.03,513.22 1038.08,513.22 1038.08,517.32 1021.68,517.32 
			1021.68,528.62 1037.11,528.62 1037.11,532.67 1021.68,532.67 1021.68,545.67 1038.08,545.67 		"/>
		<polygon class="st0" points="1088.15,549.77 1088.15,513.22 1092.83,513.22 1092.83,545.62 1108.7,545.62 1108.7,549.77 		"/>
		<path class="st0" d="M1178.86,513.22h4.97l-12.22,36.55h-4.68l-12.18-36.55h4.9l7.38,23.17c0.68,2.12,1.42,4.9,2.2,8.35
			c0.52-2.42,1.29-5.25,2.32-8.5L1178.86,513.22z"/>
		<polygon class="st0" points="1250.68,549.77 1229.63,549.77 1229.63,513.22 1250.68,513.22 1250.68,517.32 1234.28,517.32 
			1234.28,528.62 1249.71,528.62 1249.71,532.67 1234.28,532.67 1234.28,545.67 1250.68,545.67 		"/>
	</g>
	<polygon class="st0" points="189.15,691.5 184.48,691.5 184.48,674.45 169.85,674.45 169.85,691.5 165.18,691.5 165.18,654.95 
		169.85,654.95 169.85,670.35 184.48,670.35 184.48,654.95 189.15,654.95 	"/>
	<path class="st0" d="M252.85,676.13l-3.33-10.6c-0.65-2.07-1.16-3.95-1.55-5.65c-0.34,1.65-0.72,3.18-1.15,4.58l-3.6,11.67H252.85z
		 M257.77,691.58l-3.6-11.33h-12.28l-3.65,11.33h-4.75l12.07-36.7h4.88l12.13,36.7H257.77z"/>
	<polygon class="st0" points="308.62,691.5 308.62,654.95 313.3,654.95 313.3,687.35 329.17,687.35 329.17,691.5 	"/>
	<polygon class="st0" points="383.9,691.5 379.25,691.5 379.25,654.95 400.28,654.95 400.28,659.05 383.9,659.05 383.9,671.95 
		399.32,671.95 399.32,676.05 383.9,676.05 	"/>
	<polygon class="st0" points="166.89,408.04 166.89,371.49 171.57,371.49 171.57,403.89 187.44,403.89 187.44,408.04 	"/>
	<path class="st0" d="M814.97,616.27c2.88,0,5-1.21,6.34-3.62c1.34-2.42,2.01-6.12,2.01-11.12c0-5.05-0.68-8.76-2.03-11.14
		c-1.36-2.38-3.45-3.56-6.26-3.56c-5.62,0-8.43,4.9-8.43,14.7C806.6,611.36,809.39,616.27,814.97,616.27z M821.12,618.88
		c1.42,3,3.74,5.59,6.98,7.77l-3.03,3.55c-3.93-2.85-6.66-6.18-8.2-10c-0.6,0.1-1.23,0.15-1.9,0.15c-8.87,0-13.3-6.29-13.3-18.88
		c0-12.5,4.45-18.75,13.35-18.75c4.27,0,7.54,1.63,9.81,4.89c2.27,3.26,3.41,7.9,3.41,13.91
		C828.25,610.29,825.87,616.08,821.12,618.88z"/>
	<path class="st0" d="M898.07,583.81v23.7c0,4.33-1.05,7.65-3.15,9.95c-2.1,2.3-5.18,3.45-9.25,3.45c-8.05,0-12.08-4.5-12.08-13.5
		v-23.55h4.65v23.3c0,6.45,2.56,9.67,7.68,9.67c4.91,0,7.41-3.24,7.5-9.72v-23.3H898.07z"/>
	<path class="st0" d="M961.5,605.26l-3.32-10.6c-0.65-2.07-1.17-3.95-1.55-5.65c-0.33,1.65-0.71,3.18-1.15,4.58l-3.6,11.67H961.5z
		 M966.43,620.71l-3.6-11.33h-12.27l-3.65,11.33h-4.75l12.08-36.7h4.88l12.12,36.7H966.43z"/>
	<path class="st0" d="M1019.92,601.59h4.1c2.85,0,4.95-0.55,6.3-1.65c1.35-1.1,2.02-2.85,2.02-5.25c0-2.35-0.66-4.04-2-5.07
		c-1.33-1.03-3.48-1.55-6.45-1.55h-3.98V601.59z M1019.92,605.54v15.1h-4.67v-36.55h8.92c8.67,0,13,3.46,13,10.38
		c0,4.78-2.41,8.05-7.22,9.8l9.93,16.38h-5.48l-8.75-15.1H1019.92z"/>
	<polygon class="st0" points="1100.77,620.64 1096.1,620.64 1096.1,588.19 1085.65,588.19 1085.65,584.09 1111.2,584.09 
		1111.2,588.19 1100.77,588.19 	"/>
	<polygon class="st0" points="1179.82,620.64 1158.77,620.64 1158.77,584.09 1179.82,584.09 1179.82,588.19 1163.41,588.19 
		1163.41,599.49 1178.84,599.49 1178.84,603.54 1163.41,603.54 1163.41,616.54 1179.82,616.54 	"/>
	<path class="st0" d="M1232.52,601.59h4.1c2.85,0,4.95-0.55,6.3-1.65c1.35-1.1,2.02-2.85,2.02-5.25c0-2.35-0.67-4.04-2-5.07
		c-1.33-1.03-3.49-1.55-6.45-1.55h-3.98V601.59z M1232.52,605.54v15.1h-4.68v-36.55h8.93c8.67,0,13,3.46,13,10.38
		c0,4.78-2.41,8.05-7.22,9.8l9.92,16.38H1247l-8.75-15.1H1232.52z"/>
	<polygon class="st0" points="462.98,691.5 458.31,691.5 458.31,659.05 447.86,659.05 447.86,654.95 473.4,654.95 473.4,659.05 
		462.98,659.05 	"/>
	<path class="st0" d="M531.51,687.97c2.88,0,5-1.21,6.34-3.62c1.34-2.42,2.01-6.12,2.01-11.12c0-5.05-0.68-8.76-2.04-11.14
		c-1.36-2.38-3.44-3.56-6.26-3.56c-5.62,0-8.43,4.9-8.43,14.7C523.13,683.05,525.93,687.97,531.51,687.97z M531.51,692.04
		c-8.87,0-13.3-6.29-13.3-18.88c0-12.5,4.45-18.75,13.35-18.75c4.27,0,7.54,1.63,9.81,4.89c2.27,3.26,3.41,7.9,3.41,13.91
		c0,6.02-1.15,10.66-3.45,13.93C539.03,690.41,535.76,692.04,531.51,692.04z"/>
	<path class="st0" d="M595.54,673.33h4.25c3.3,0,5.66-0.6,7.09-1.8c1.43-1.2,2.14-3.08,2.14-5.62c0-4.65-2.82-6.98-8.45-6.98h-5.02
		V673.33z M595.54,677.28v14.22h-4.65v-36.55h10.1c8.57,0,12.85,3.57,12.85,10.7c0,3.65-1.16,6.5-3.46,8.55
		c-2.31,2.05-5.66,3.08-10.06,3.08H595.54z"/>
	<path class="st0" d="M678.04,676.13l-3.33-10.6c-0.65-2.07-1.16-3.95-1.55-5.65c-0.34,1.65-0.72,3.17-1.15,4.57l-3.6,11.68H678.04z
		 M682.97,691.58l-3.6-11.32h-12.28l-3.65,11.32h-4.75l12.07-36.7h4.88l12.12,36.7H682.97z"/>
	<path class="st0" d="M732.27,690.29v-4.45c3.52,1.43,6.97,2.15,10.35,2.15c5.83,0,8.75-2,8.75-6c0-1.73-0.59-3.07-1.76-4
		c-1.18-0.93-3.55-2.04-7.14-3.32c-3.46-1.22-5.95-2.67-7.46-4.36c-1.51-1.69-2.26-3.89-2.26-6.59c0-2.9,1.07-5.17,3.21-6.81
		c2.14-1.64,5.08-2.46,8.81-2.46c3.82,0,7.28,0.65,10.4,1.95l-1.6,4.1c-3.22-1.3-6.22-1.95-9-1.95c-4.88,0-7.32,1.74-7.32,5.22
		c0,1.7,0.54,3.07,1.64,4.1c1.09,1.03,3.34,2.14,6.76,3.33c4.1,1.47,6.84,2.98,8.21,4.54c1.38,1.56,2.06,3.56,2.06,6.01
		c0,3.2-1.16,5.71-3.46,7.54c-2.31,1.83-5.59,2.74-9.84,2.74C738.2,692.02,734.75,691.44,732.27,690.29z"/>
	<polygon class="st0" points="817.31,691.5 812.64,691.5 812.64,659.05 802.19,659.05 802.19,654.95 827.74,654.95 827.74,659.05 
		817.31,659.05 	"/>
	<path class="st0" d="M177.18,900.57c2.88,0,5-1.21,6.34-3.62c1.34-2.42,2.01-6.12,2.01-11.12c0-5.05-0.68-8.76-2.04-11.14
		c-1.36-2.38-3.44-3.56-6.26-3.56c-5.62,0-8.43,4.9-8.43,14.7C168.8,895.65,171.6,900.57,177.18,900.57z M177.18,904.64
		c-8.87,0-13.3-6.29-13.3-18.88c0-12.5,4.45-18.75,13.35-18.75c4.27,0,7.54,1.63,9.81,4.89c2.27,3.26,3.41,7.9,3.41,13.91
		c0,6.02-1.15,10.66-3.45,13.92C184.7,903.01,181.43,904.64,177.18,904.64z"/>
	<path class="st0" d="M259.99,904.1h-5.38l-14.5-30.25h-0.2c0.3,4.62,0.45,8.09,0.45,10.43v19.82h-4.3v-36.55h5.33l14.45,30.1h0.15
		c-0.23-5.05-0.35-8.42-0.35-10.1v-20h4.35V904.1z"/>
	<polygon class="st0" points="329.42,904.1 308.37,904.1 308.37,867.55 329.42,867.55 329.42,871.65 313.02,871.65 313.02,882.95 
		328.45,882.95 328.45,887 313.02,887 313.02,900 329.42,900 	"/>
	<path class="st0" d="M236.21,406.83v-4.45c3.51,1.43,6.96,2.15,10.35,2.15c5.84,0,8.75-2,8.75-6c0-1.73-0.59-3.07-1.76-4
		c-1.18-0.93-3.55-2.04-7.14-3.32c-3.47-1.22-5.95-2.67-7.47-4.36c-1.51-1.69-2.26-3.89-2.26-6.59c0-2.9,1.07-5.17,3.21-6.81
		c2.14-1.64,5.08-2.46,8.81-2.46c3.82,0,7.28,0.65,10.4,1.95l-1.6,4.1c-3.22-1.3-6.22-1.95-9-1.95c-4.88,0-7.33,1.74-7.33,5.22
		c0,1.7,0.55,3.07,1.64,4.1c1.09,1.03,3.35,2.14,6.77,3.33c4.1,1.47,6.84,2.98,8.21,4.54c1.38,1.56,2.06,3.56,2.06,6.01
		c0,3.2-1.15,5.71-3.46,7.54c-2.31,1.83-5.59,2.74-9.84,2.74C242.14,408.55,238.69,407.98,236.21,406.83z"/>
	<polygon class="st0" points="392.11,904.1 387.44,904.1 387.44,871.65 376.99,871.65 376.99,867.55 402.54,867.55 402.54,871.65 
		392.11,871.65 	"/>
	<path class="st0" d="M458.47,878.9h4.43l3.62,13.02c1.02,3.65,1.62,6.21,1.8,7.68c0.03-0.88,0.57-6.04,1.62-15.47l1.75-16.58h4.25
		l-4.68,36.55h-4.75l-4.2-14.5c-0.67-2.3-1.22-4.65-1.65-7.05c-0.53,2.89-1.08,5.25-1.62,7.1l-3.9,14.45h-4.75l-5.07-36.55h4.25
		l2.2,16.58c0.38,2.93,0.72,6.08,1,9.45c0.28,3.37,0.43,5.38,0.43,6.02c0.4-2.52,0.98-5.12,1.75-7.8L458.47,878.9z"/>
	<path class="st0" d="M531.51,900.57c2.89,0,5-1.21,6.34-3.62c1.34-2.42,2.01-6.12,2.01-11.12c0-5.05-0.68-8.76-2.04-11.14
		c-1.35-2.38-3.45-3.56-6.26-3.56c-5.62,0-8.42,4.9-8.42,14.7C523.13,895.65,525.92,900.57,531.51,900.57z M531.51,904.64
		c-8.86,0-13.3-6.29-13.3-18.88c0-12.5,4.45-18.75,13.35-18.75c4.27,0,7.54,1.63,9.81,4.89c2.28,3.26,3.41,7.9,3.41,13.91
		c0,6.02-1.15,10.66-3.45,13.92C539.03,903.01,535.76,904.64,531.51,904.64z"/>
	<path class="st0" d="M1086.6,761.16v-4.45c3.52,1.43,6.97,2.15,10.35,2.15c5.83,0,8.75-2,8.75-6c0-1.73-0.59-3.07-1.76-4
		c-1.18-0.93-3.56-2.04-7.14-3.32c-3.46-1.22-5.95-2.67-7.46-4.36c-1.51-1.69-2.26-3.89-2.26-6.59c0-2.9,1.07-5.17,3.21-6.81
		c2.14-1.64,5.08-2.46,8.81-2.46c3.82,0,7.29,0.65,10.4,1.95l-1.6,4.1c-3.21-1.3-6.21-1.95-9-1.95c-4.88,0-7.32,1.74-7.32,5.22
		c0,1.7,0.55,3.07,1.64,4.1c1.09,1.03,3.35,2.14,6.76,3.33c4.1,1.47,6.84,2.98,8.22,4.54c1.38,1.56,2.06,3.56,2.06,6.01
		c0,3.2-1.16,5.71-3.46,7.54c-2.31,1.83-5.59,2.74-9.84,2.74C1092.53,762.88,1089.08,762.31,1086.6,761.16z"/>
	<polygon class="st0" points="1178.99,762.37 1159.59,762.37 1159.59,759.3 1166.97,758.8 1166.97,729.4 1159.59,728.9 
		1159.59,725.82 1178.99,725.82 1178.99,728.9 1171.64,729.4 1171.64,758.8 1178.99,759.3 	"/>
	<polygon class="st0" points="1254.17,762.3 1248.9,762.3 1240.02,746.43 1230.87,762.3 1226.15,762.3 1237.47,743.2 
		1226.92,725.75 1231.9,725.75 1240.17,739.73 1248.52,725.75 1253.29,725.75 1242.75,743.05 	"/>
	<polygon class="st0" points="888.18,904.08 883.5,904.08 883.5,871.63 873.05,871.63 873.05,867.53 898.6,867.53 898.6,871.63 
		888.18,871.63 	"/>
	<path class="st0" d="M954.53,878.88h4.43l3.62,13.02c1.02,3.65,1.62,6.21,1.8,7.68c0.03-0.88,0.57-6.04,1.62-15.47l1.75-16.58h4.25
		l-4.68,36.55h-4.75l-4.2-14.5c-0.67-2.3-1.22-4.65-1.65-7.05c-0.53,2.89-1.07,5.25-1.62,7.1l-3.9,14.45h-4.75l-5.07-36.55h4.25
		l2.2,16.58c0.38,2.93,0.72,6.08,1,9.45c0.28,3.37,0.43,5.38,0.43,6.02c0.4-2.52,0.98-5.12,1.75-7.8L954.53,878.88z"/>
	<polygon class="st0" points="1038.08,904.1 1017.04,904.1 1017.04,867.55 1038.08,867.55 1038.08,871.65 1021.68,871.65 
		1021.68,882.95 1037.11,882.95 1037.11,887 1021.68,887 1021.68,900 1038.08,900 	"/>
	<polygon class="st0" points="1088.15,904.1 1088.15,867.55 1092.83,867.55 1092.83,899.95 1108.7,899.95 1108.7,904.1 	"/>
	<path class="st0" d="M1178.85,867.53h4.98l-12.23,36.55h-4.67l-12.18-36.55h4.9l7.38,23.18c0.68,2.12,1.42,4.9,2.2,8.35
		c0.52-2.42,1.29-5.25,2.33-8.5L1178.85,867.53z"/>
	<polygon class="st0" points="1250.68,904.08 1229.63,904.08 1229.63,867.53 1250.68,867.53 1250.68,871.63 1234.29,871.63 
		1234.29,882.93 1249.71,882.93 1249.71,886.98 1234.29,886.98 1234.29,899.98 1250.68,899.98 	"/>
	<polygon class="st0" points="525.63,762.37 520.98,762.37 520.98,725.82 542.01,725.82 542.01,729.92 525.63,729.92 525.63,742.82 
		541.06,742.82 541.06,746.92 525.63,746.92 	"/>
	<path class="st0" d="M602.38,758.78c2.88,0,5-1.21,6.34-3.62c1.34-2.42,2.01-6.12,2.01-11.12c0-5.05-0.68-8.76-2.04-11.14
		c-1.36-2.38-3.44-3.56-6.26-3.56c-5.61,0-8.42,4.9-8.42,14.7C594,753.86,596.79,758.78,602.38,758.78z M602.38,762.85
		c-8.87,0-13.3-6.29-13.3-18.88c0-12.5,4.45-18.75,13.35-18.75c4.27,0,7.54,1.63,9.81,4.89c2.28,3.26,3.41,7.9,3.41,13.91
		c0,6.02-1.15,10.66-3.45,13.93C609.9,761.22,606.63,762.85,602.38,762.85z"/>
	<path class="st0" d="M685.47,725.55v23.7c0,4.33-1.05,7.65-3.15,9.95c-2.1,2.3-5.18,3.45-9.25,3.45c-8.05,0-12.07-4.5-12.07-13.5
		v-23.55h4.65v23.3c0,6.45,2.56,9.68,7.67,9.68c4.92,0,7.42-3.24,7.5-9.73v-23.3H685.47z"/>
	<path class="st0" d="M736.45,743.3h4.1c2.85,0,4.95-0.55,6.3-1.65c1.35-1.1,2.02-2.85,2.02-5.25c0-2.35-0.67-4.04-2-5.07
		c-1.33-1.04-3.48-1.55-6.45-1.55h-3.98V743.3z M736.45,747.25v15.1h-4.67V725.8h8.92c8.67,0,13,3.46,13,10.38
		c0,4.78-2.41,8.05-7.22,9.8l9.92,16.38h-5.48l-8.75-15.1H736.45z"/>
	<polygon class="st0" points="809.1,762.37 804.45,762.37 804.45,725.82 825.47,725.82 825.47,729.92 809.1,729.92 809.1,742.82 
		824.52,742.82 824.52,746.92 809.1,746.92 	"/>
	<polygon class="st0" points="895.53,762.37 876.13,762.37 876.13,759.3 883.5,758.8 883.5,729.4 876.13,728.9 876.13,725.82 
		895.53,725.82 895.53,728.9 888.18,729.4 888.18,758.8 895.53,759.3 	"/>
	<path class="st0" d="M966.26,725.82h4.97l-12.22,36.55h-4.68l-12.18-36.55h4.9l7.38,23.18c0.68,2.12,1.42,4.9,2.2,8.35
		c0.52-2.42,1.29-5.25,2.32-8.5L966.26,725.82z"/>
	<polygon class="st0" points="1038.08,762.37 1017.04,762.37 1017.04,725.82 1038.08,725.82 1038.08,729.92 1021.68,729.92 
		1021.68,741.22 1037.11,741.22 1037.11,745.27 1021.68,745.27 1021.68,758.27 1038.08,758.27 	"/>
	<path class="st0" d="M165.34,832.03v-4.45c3.52,1.43,6.97,2.15,10.35,2.15c5.83,0,8.75-2,8.75-6c0-1.74-0.59-3.07-1.76-4
		c-1.18-0.93-3.55-2.04-7.14-3.32c-3.47-1.22-5.96-2.67-7.47-4.36c-1.51-1.69-2.26-3.89-2.26-6.59c0-2.9,1.07-5.17,3.21-6.81
		c2.14-1.64,5.08-2.46,8.81-2.46c3.82,0,7.29,0.65,10.4,1.95l-1.6,4.1c-3.21-1.3-6.21-1.95-9-1.95c-4.88,0-7.32,1.74-7.32,5.22
		c0,1.7,0.55,3.07,1.64,4.1c1.09,1.03,3.35,2.14,6.76,3.32c4.1,1.47,6.84,2.98,8.21,4.54c1.38,1.55,2.06,3.56,2.06,6.01
		c0,3.2-1.16,5.71-3.46,7.53c-2.31,1.83-5.59,2.74-9.84,2.74C171.27,833.75,167.82,833.17,165.34,832.03z"/>
	<polygon class="st0" points="258.55,833.24 237.51,833.24 237.51,796.69 258.55,796.69 258.55,800.79 242.16,800.79 242.16,812.09 
		257.58,812.09 257.58,816.14 242.16,816.14 242.16,829.14 258.55,829.14 	"/>
	<path class="st0" d="M328.46,796.69h4.97l-12.22,36.55h-4.68l-12.18-36.55h4.9l7.38,23.17c0.68,2.12,1.42,4.9,2.2,8.35
		c0.52-2.42,1.29-5.25,2.32-8.5L328.46,796.69z"/>
	<polygon class="st0" points="400.29,833.24 379.24,833.24 379.24,796.69 400.29,796.69 400.29,800.79 383.89,800.79 383.89,812.09 
		399.32,812.09 399.32,816.14 383.89,816.14 383.89,829.14 400.29,829.14 	"/>
	<path class="st0" d="M472.59,833.24h-5.38l-14.5-30.25h-0.2c0.3,4.62,0.45,8.09,0.45,10.43v19.82h-4.3v-36.55h5.32l14.45,30.1h0.15
		c-0.23-5.05-0.35-8.42-0.35-10.1v-20h4.35V833.24z"/>
	<polygon class="st0" points="542.02,833.24 520.97,833.24 520.97,796.69 542.02,796.69 542.02,800.79 525.62,800.79 525.62,812.09 
		541.05,812.09 541.05,816.14 525.62,816.14 525.62,829.14 542.02,829.14 	"/>
	<polygon class="st0" points="612.06,833.24 592.66,833.24 592.66,830.16 600.04,829.66 600.04,800.26 592.66,799.76 592.66,796.69 
		612.06,796.69 612.06,799.76 604.71,800.26 604.71,829.66 612.06,830.16 	"/>
	<path class="st0" d="M674.89,813.95h10.55v17.92c-3.25,1.25-6.75,1.88-10.5,1.88c-4.37,0-7.78-1.66-10.24-4.99
		c-2.46-3.32-3.69-7.94-3.69-13.84c0-5.85,1.35-10.44,4.05-13.76c2.7-3.32,6.42-4.99,11.15-4.99c3.2,0,6.09,0.72,8.65,2.15
		l-1.8,4.05c-2.43-1.4-4.77-2.1-7-2.1c-3.2,0-5.69,1.29-7.48,3.89c-1.78,2.59-2.67,6.2-2.67,10.81c0,9.8,3.28,14.7,9.85,14.7
		c1.62,0,3.3-0.24,5.05-0.73v-10.9h-5.93V813.95z"/>
	<polygon class="st0" points="756.08,833.24 751.41,833.24 751.41,816.19 736.78,816.19 736.78,833.24 732.11,833.24 732.11,796.69 
		736.78,796.69 736.78,812.09 751.41,812.09 751.41,796.69 756.08,796.69 	"/>
	<polygon class="st0" points="817.31,833.24 812.63,833.24 812.63,800.79 802.19,800.79 802.19,796.69 827.74,796.69 827.74,800.79 
		817.31,800.79 	"/>
	<path class="st0" d="M1039.52,691.5h-5.38l-14.5-30.25h-0.2c0.3,4.62,0.45,8.09,0.45,10.43v19.82h-4.3v-36.55h5.32l14.45,30.1h0.15
		c-0.23-5.05-0.35-8.42-0.35-10.1v-20h4.35V691.5z"/>
	<polygon class="st0" points="1108.12,691.5 1088.73,691.5 1088.73,688.43 1096.1,687.93 1096.1,658.53 1088.73,658.03 
		1088.73,654.95 1108.12,654.95 1108.12,658.03 1100.78,658.53 1100.78,687.93 1108.12,688.43 	"/>
	<path class="st0" d="M1181.25,691.5h-5.38l-14.5-30.25h-0.2c0.3,4.62,0.45,8.09,0.45,10.43v19.82h-4.3v-36.55h5.32l14.45,30.1h0.15
		c-0.23-5.05-0.35-8.42-0.35-10.1v-20h4.35V691.5z"/>
	<polygon class="st0" points="1250.68,691.5 1229.63,691.5 1229.63,654.95 1250.68,654.95 1250.68,659.05 1234.28,659.05 
		1234.28,670.36 1249.71,670.36 1249.71,674.41 1234.28,674.41 1234.28,687.41 1250.68,687.41 	"/>
	<polygon class="st0" points="675.58,904.1 670.9,904.1 670.9,871.65 660.45,871.65 660.45,867.55 686,867.55 686,871.65 
		675.58,871.65 	"/>
	<polygon class="st0" points="754.62,904.1 733.57,904.1 733.57,867.55 754.62,867.55 754.62,871.65 738.22,871.65 738.22,882.95 
		753.65,882.95 753.65,887 738.22,887 738.22,900 754.62,900 	"/>
	<path class="st0" d="M826.92,904.1h-5.38l-14.5-30.25h-0.2c0.3,4.62,0.45,8.09,0.45,10.42v19.83H803v-36.55h5.33l14.45,30.1h0.15
		c-0.23-5.05-0.35-8.42-0.35-10.1v-20h4.35V904.1z"/>
	<polygon class="st0" points="179.52,974.97 174.84,974.97 174.84,942.52 164.39,942.52 164.39,938.42 189.94,938.42 189.94,942.52 
		179.52,942.52 	"/>
	<polygon class="st0" points="179.51,762.38 174.84,762.38 174.84,729.93 164.39,729.93 164.39,725.83 189.94,725.83 189.94,729.93 
		179.51,729.93 	"/>
	<polygon class="st0" points="260.02,762.37 255.34,762.37 255.34,745.32 240.72,745.32 240.72,762.37 236.04,762.37 236.04,725.82 
		240.72,725.82 240.72,741.22 255.34,741.22 255.34,725.82 260.02,725.82 	"/>
	<path class="st0" d="M311.26,743.33h4.1c2.85,0,4.95-0.55,6.3-1.65c1.35-1.1,2.02-2.85,2.02-5.25c0-2.35-0.66-4.04-2-5.07
		c-1.33-1.03-3.48-1.55-6.45-1.55h-3.97V743.33z M311.26,747.28v15.1h-4.68v-36.55h8.93c8.66,0,13,3.46,13,10.38
		c0,4.79-2.41,8.05-7.23,9.8l9.93,16.38h-5.48l-8.75-15.1H311.26z"/>
	<polygon class="st0" points="400.29,762.38 379.24,762.38 379.24,725.83 400.29,725.83 400.29,729.93 383.89,729.93 383.89,741.23 
		399.31,741.23 399.31,745.28 383.89,745.28 383.89,758.28 400.29,758.28 	"/>
	<polygon class="st0" points="471.16,762.37 450.1,762.37 450.1,725.82 471.16,725.82 471.16,729.92 454.75,729.92 454.75,741.22 
		470.18,741.22 470.18,745.27 454.75,745.27 454.75,758.27 471.16,758.27 	"/>
	<path class="st0" d="M684.97,969.96V974c-2.43,0.98-5.42,1.48-8.95,1.48c-5.15,0-9.09-1.63-11.83-4.9
		c-2.73-3.27-4.1-7.91-4.1-13.93c0-5.77,1.49-10.33,4.47-13.7c2.98-3.37,7.06-5.05,12.23-5.05c3.67,0,6.86,0.71,9.58,2.15l-1.95,3.9
		c-2.57-1.3-5.11-1.95-7.62-1.95c-3.58,0-6.44,1.32-8.57,3.96c-2.13,2.64-3.2,6.22-3.2,10.74c0,4.78,1,8.43,3,10.94
		c2,2.51,4.92,3.76,8.77,3.76C678.96,971.41,681.68,970.92,684.97,969.96z"/>
	<path class="st0" d="M248.04,971.43c2.88,0,4.99-1.21,6.34-3.62c1.34-2.42,2.01-6.12,2.01-11.12c0-5.05-0.68-8.76-2.03-11.14
		c-1.36-2.38-3.45-3.56-6.27-3.56c-5.62,0-8.42,4.9-8.42,14.7C239.67,966.51,242.46,971.43,248.04,971.43z M248.04,975.51
		c-8.87,0-13.3-6.29-13.3-18.88c0-12.5,4.45-18.75,13.35-18.75c4.27,0,7.54,1.63,9.81,4.89c2.28,3.26,3.41,7.9,3.41,13.91
		c0,6.02-1.15,10.66-3.45,13.93C255.57,973.87,252.29,975.51,248.04,975.51z"/>
	<path class="st0" d="M330.64,969.96V974c-2.43,0.98-5.42,1.48-8.95,1.48c-5.15,0-9.09-1.63-11.83-4.9
		c-2.73-3.27-4.1-7.91-4.1-13.93c0-5.77,1.49-10.33,4.47-13.7c2.99-3.37,7.06-5.05,12.23-5.05c3.66,0,6.86,0.71,9.57,2.15l-1.95,3.9
		c-2.57-1.3-5.11-1.95-7.62-1.95c-3.59,0-6.44,1.32-8.57,3.96c-2.13,2.64-3.2,6.22-3.2,10.74c0,4.78,1,8.43,3,10.94
		c2,2.51,4.92,3.76,8.78,3.76C324.62,971.41,327.35,970.92,330.64,969.96z"/>
	<polygon class="st0" points="379.49,974.97 379.49,938.42 384.16,938.42 384.16,970.82 400.04,970.82 400.04,974.97 	"/>
	<path class="st0" d="M460.64,971.43c2.88,0,5-1.21,6.34-3.62c1.34-2.42,2.01-6.12,2.01-11.12c0-5.05-0.68-8.76-2.04-11.14
		c-1.36-2.38-3.45-3.56-6.26-3.56c-5.62,0-8.43,4.9-8.43,14.7C452.27,966.51,455.06,971.43,460.64,971.43z M460.64,975.51
		c-8.87,0-13.3-6.29-13.3-18.88c0-12.5,4.45-18.75,13.35-18.75c4.27,0,7.54,1.63,9.81,4.89c2.27,3.26,3.41,7.9,3.41,13.91
		c0,6.02-1.15,10.66-3.45,13.93C468.17,973.87,464.89,975.51,460.64,975.51z"/>
	<path class="st0" d="M543.21,969.96V974c-2.43,0.98-5.41,1.48-8.95,1.48c-5.15,0-9.09-1.63-11.82-4.9
		c-2.73-3.27-4.1-7.91-4.1-13.93c0-5.77,1.49-10.33,4.48-13.7c2.98-3.37,7.06-5.05,12.23-5.05c3.66,0,6.85,0.71,9.57,2.15l-1.95,3.9
		c-2.57-1.3-5.11-1.95-7.62-1.95c-3.59,0-6.44,1.32-8.58,3.96c-2.13,2.64-3.2,6.22-3.2,10.74c0,4.78,1,8.43,3,10.94
		c2,2.51,4.93,3.76,8.78,3.76C537.2,971.41,539.93,970.92,543.21,969.96z"/>
	<polygon class="st0" points="614.7,974.97 609.43,974.97 598.18,957.52 594.68,960.37 594.68,974.97 590.02,974.97 590.02,938.42 
		594.68,938.42 594.68,956.69 597.7,952.49 609.02,938.42 614.25,938.42 601.22,954.34 	"/>
	<polygon class="st0" points="753.79,974.97 734.4,974.97 734.4,971.89 741.77,971.39 741.77,941.99 734.4,941.49 734.4,938.42 
		753.79,938.42 753.79,941.49 746.45,941.99 746.45,971.39 753.79,971.89 	"/>
	<path class="st0" d="M826.92,974.97h-5.38l-14.5-30.25h-0.2c0.3,4.62,0.45,8.09,0.45,10.43v19.82H803v-36.55h5.32l14.45,30.1h0.15
		c-0.24-5.05-0.35-8.42-0.35-10.1v-20h4.35V974.97z"/>
	<path class="st0" d="M885.84,971.43c2.88,0,5-1.21,6.34-3.62c1.34-2.42,2.01-6.12,2.01-11.12c0-5.05-0.68-8.76-2.04-11.14
		c-1.36-2.38-3.45-3.56-6.26-3.56c-5.62,0-8.43,4.9-8.43,14.7C877.46,966.51,880.26,971.43,885.84,971.43z M885.84,975.51
		c-8.87,0-13.3-6.29-13.3-18.88c0-12.5,4.45-18.75,13.35-18.75c4.27,0,7.54,1.63,9.81,4.89c2.27,3.26,3.41,7.9,3.41,13.91
		c0,6.01-1.15,10.66-3.45,13.92C893.37,973.87,890.09,975.51,885.84,975.51z"/>
	<polygon class="st0" points="959.04,974.97 954.37,974.97 954.37,942.52 943.92,942.52 943.92,938.42 969.47,938.42 969.47,942.52 
		959.04,942.52 	"/>
	<polygon class="st0" points="1039.55,974.97 1034.87,974.97 1034.87,957.92 1020.24,957.92 1020.24,974.97 1015.57,974.97 
		1015.57,938.42 1020.24,938.42 1020.24,953.82 1034.87,953.82 1034.87,938.42 1039.55,938.42 	"/>
	<polygon class="st0" points="1108.95,974.97 1087.9,974.97 1087.9,938.42 1108.95,938.42 1108.95,942.52 1092.55,942.52 
		1092.55,953.82 1107.98,953.82 1107.98,957.87 1092.55,957.87 1092.55,970.87 1108.95,970.87 	"/>
	<path class="st0" d="M614.32,904.1h-5.38l-14.5-30.25h-0.2c0.3,4.62,0.45,8.09,0.45,10.43v19.82h-4.3v-36.55h5.33l14.45,30.1h0.15
		c-0.23-5.05-0.35-8.42-0.35-10.1v-20h4.35V904.1z"/>
	<path class="st0" d="M181.98,1030.46l-3.32-10.6c-0.65-2.07-1.17-3.95-1.55-5.65c-0.33,1.65-0.72,3.17-1.15,4.57l-3.6,11.68H181.98
		z M186.9,1045.91l-3.6-11.32h-12.27l-3.65,11.32h-4.75l12.07-36.7h4.88l12.12,36.7H186.9z"/>
	<polygon class="st0" points="242.17,1045.83 237.52,1045.83 237.52,1009.28 258.54,1009.28 258.54,1013.39 242.17,1013.39 
		242.17,1026.28 257.59,1026.28 257.59,1030.39 242.17,1030.39 	"/>
	<polygon class="st0" points="321.25,1045.83 316.57,1045.83 316.57,1013.39 306.12,1013.39 306.12,1009.28 331.67,1009.28 
		331.67,1013.39 321.25,1013.39 	"/>
	<polygon class="st0" points="400.29,1045.83 379.24,1045.83 379.24,1009.28 400.29,1009.28 400.29,1013.39 383.89,1013.39 
		383.89,1024.69 399.31,1024.69 399.31,1028.73 383.89,1028.73 383.89,1041.73 400.29,1041.73 	"/>
	<path class="st0" d="M452.99,1026.78h4.1c2.85,0,4.95-0.55,6.3-1.65c1.35-1.1,2.02-2.85,2.02-5.25c0-2.35-0.67-4.04-2-5.08
		c-1.33-1.03-3.48-1.55-6.45-1.55h-3.98V1026.78z M452.99,1030.73v15.1h-4.67v-36.55h8.92c8.67,0,13,3.46,13,10.38
		c0,4.78-2.41,8.05-7.22,9.8l9.92,16.38h-5.47l-8.75-15.1H452.99z"/>
	<path class="st0" d="M543.46,1045.83h-5.38l-14.5-30.25h-0.2c0.3,4.62,0.45,8.09,0.45,10.43v19.82h-4.3v-36.55h5.32l14.45,30.1
		h0.15c-0.23-5.05-0.35-8.42-0.35-10.1v-20h4.35V1045.83z"/>
	<path class="st0" d="M602.37,1042.3c2.88,0,5-1.21,6.34-3.62c1.34-2.42,2.01-6.12,2.01-11.12c0-5.05-0.68-8.76-2.04-11.14
		c-1.36-2.38-3.45-3.56-6.26-3.56c-5.62,0-8.43,4.9-8.43,14.7C594,1037.38,596.79,1042.3,602.37,1042.3z M602.37,1046.37
		c-8.87,0-13.3-6.29-13.3-18.88c0-12.5,4.45-18.75,13.35-18.75c4.27,0,7.54,1.63,9.81,4.89c2.27,3.26,3.41,7.9,3.41,13.91
		c0,6.01-1.15,10.66-3.45,13.92C609.9,1044.74,606.62,1046.37,602.37,1046.37z"/>
	<path class="st0" d="M673.24,1042.3c2.88,0,5-1.21,6.34-3.62c1.34-2.42,2.01-6.12,2.01-11.12c0-5.05-0.68-8.76-2.04-11.14
		c-1.36-2.38-3.44-3.56-6.26-3.56c-5.62,0-8.43,4.9-8.43,14.7C664.87,1037.38,667.66,1042.3,673.24,1042.3z M673.24,1046.37
		c-8.87,0-13.3-6.29-13.3-18.88c0-12.5,4.45-18.75,13.35-18.75c4.27,0,7.54,1.63,9.81,4.89c2.27,3.26,3.41,7.9,3.41,13.91
		c0,6.01-1.15,10.66-3.45,13.92C680.77,1044.74,677.49,1046.37,673.24,1046.37z"/>
	<path class="st0" d="M756.06,1045.85h-5.38l-14.5-30.25h-0.2c0.3,4.62,0.45,8.09,0.45,10.43v19.82h-4.3v-36.55h5.32l14.45,30.1
		h0.15c-0.23-5.05-0.35-8.42-0.35-10.1v-20h4.35V1045.85z"/>
	<path class="st0" d="M812.9,1045.83l-6.95-32h-0.2c0.3,4.43,0.45,7.82,0.45,10.15v21.85h-3.78v-36.55h6.18l6.2,29.8h0.15l6.25-29.8
		h6.3v36.55h-3.82v-22.18c0-1.7,0.12-4.96,0.35-9.77h-0.2l-7.08,31.95H812.9z"/>
	<path class="st0" d="M885.84,1042.35c2.88,0,5-1.21,6.34-3.62c1.34-2.42,2.01-6.12,2.01-11.12c0-5.05-0.68-8.76-2.04-11.14
		c-1.36-2.38-3.44-3.56-6.26-3.56c-5.62,0-8.43,4.9-8.43,14.7C877.46,1037.43,880.26,1042.35,885.84,1042.35z M885.84,1046.43
		c-8.87,0-13.3-6.29-13.3-18.88c0-12.5,4.45-18.75,13.35-18.75c4.27,0,7.54,1.63,9.81,4.89c2.27,3.26,3.41,7.89,3.41,13.91
		c0,6.01-1.15,10.66-3.45,13.93C893.37,1044.79,890.09,1046.43,885.84,1046.43z"/>
	<path class="st0" d="M949.06,1026.78h4.1c2.85,0,4.95-0.55,6.3-1.65c1.35-1.1,2.03-2.85,2.03-5.25c0-2.35-0.67-4.04-2-5.07
		c-1.34-1.04-3.48-1.55-6.45-1.55h-3.98V1026.78z M949.06,1030.73v15.1h-4.68v-36.55h8.93c8.67,0,13,3.46,13,10.38
		c0,4.79-2.41,8.05-7.23,9.8l9.93,16.38h-5.47l-8.75-15.1H949.06z"/>
	<path class="st0" d="M1039.52,1045.89h-5.38l-14.5-30.25h-0.2c0.3,4.62,0.45,8.09,0.45,10.43v19.82h-4.3v-36.55h5.32l14.45,30.1
		h0.15c-0.23-5.05-0.35-8.42-0.35-10.1v-20h4.35V1045.89z"/>
	<polygon class="st0" points="1108.12,1045.83 1088.73,1045.83 1088.73,1042.76 1096.1,1042.26 1096.1,1012.86 1088.73,1012.36 
		1088.73,1009.28 1108.12,1009.28 1108.12,1012.36 1100.77,1012.86 1100.77,1042.26 1108.12,1042.76 	"/>
	<path class="st0" d="M1181.25,1045.83h-5.38l-14.5-30.25h-0.2c0.3,4.62,0.45,8.09,0.45,10.43v19.82h-4.3v-36.55h5.33l14.45,30.1
		h0.15c-0.23-5.05-0.35-8.42-0.35-10.1v-20h4.35V1045.83z"/>
	<path class="st0" d="M1241.82,1026.55h10.55v17.93c-3.25,1.25-6.75,1.88-10.5,1.88c-4.37,0-7.78-1.66-10.24-4.99
		c-2.46-3.32-3.69-7.94-3.69-13.84c0-5.85,1.35-10.44,4.05-13.76c2.7-3.33,6.42-4.99,11.15-4.99c3.2,0,6.09,0.71,8.65,2.15
		l-1.8,4.05c-2.43-1.4-4.77-2.1-7-2.1c-3.2,0-5.69,1.3-7.48,3.89c-1.78,2.59-2.67,6.2-2.67,10.81c0,9.8,3.28,14.7,9.85,14.7
		c1.62,0,3.3-0.24,5.05-0.73v-10.9h-5.93V1026.55z"/>
	<path class="st0" d="M1157.47,973.75v-4.45c3.52,1.43,6.97,2.15,10.35,2.15c5.84,0,8.75-2,8.75-6c0-1.73-0.59-3.07-1.76-4
		c-1.18-0.93-3.55-2.04-7.14-3.33c-3.47-1.21-5.95-2.67-7.46-4.36c-1.51-1.69-2.27-3.89-2.27-6.59c0-2.9,1.07-5.17,3.22-6.81
		c2.14-1.64,5.08-2.46,8.81-2.46c3.82,0,7.28,0.65,10.4,1.95l-1.6,4.1c-3.22-1.3-6.22-1.95-9-1.95c-4.89,0-7.33,1.74-7.33,5.23
		c0,1.7,0.55,3.07,1.64,4.1c1.09,1.03,3.34,2.14,6.76,3.32c4.1,1.46,6.84,2.98,8.21,4.53c1.38,1.56,2.06,3.56,2.06,6.02
		c0,3.2-1.15,5.71-3.46,7.54c-2.31,1.82-5.59,2.74-9.84,2.74C1163.4,975.48,1159.95,974.91,1157.47,973.75z"/>
	<path class="st0" d="M1244.97,959.59l-3.32-10.6c-0.65-2.07-1.17-3.95-1.55-5.65c-0.33,1.65-0.71,3.18-1.15,4.57l-3.6,11.68
		H1244.97z M1249.9,975.04l-3.6-11.32h-12.27l-3.65,11.32h-4.75l12.08-36.7h4.88l12.12,36.7H1249.9z"/>
	<path class="st0" d="M189.13,1116.7h-5.38l-14.5-30.25h-0.2c0.3,4.62,0.45,8.09,0.45,10.43v19.82h-4.3v-36.55h5.32l14.45,30.1h0.15
		c-0.23-5.05-0.35-8.42-0.35-10.1v-20h4.35V1116.7z"/>
	<polygon class="st0" points="257.73,1116.7 238.33,1116.7 238.33,1113.63 245.71,1113.13 245.71,1083.72 238.33,1083.22 
		238.33,1080.15 257.73,1080.15 257.73,1083.22 250.38,1083.72 250.38,1113.13 257.73,1113.63 	"/>
	<path class="st0" d="M320.56,1097.41h10.55v17.93c-3.25,1.25-6.75,1.88-10.5,1.88c-4.36,0-7.78-1.66-10.23-4.99
		c-2.46-3.32-3.69-7.94-3.69-13.84c0-5.85,1.35-10.44,4.05-13.76c2.7-3.33,6.42-4.99,11.15-4.99c3.2,0,6.08,0.71,8.65,2.15
		l-1.8,4.05c-2.43-1.4-4.77-2.1-7-2.1c-3.2,0-5.69,1.3-7.47,3.89c-1.79,2.59-2.68,6.2-2.68,10.81c0,9.8,3.29,14.7,9.85,14.7
		c1.62,0,3.3-0.24,5.05-0.73v-10.9h-5.92V1097.41z"/>
	<polygon class="st0" points="401.75,1116.7 397.08,1116.7 397.08,1099.65 382.45,1099.65 382.45,1116.7 377.78,1116.7 
		377.78,1080.15 382.45,1080.15 382.45,1095.55 397.08,1095.55 397.08,1080.15 401.75,1080.15 	"/>
	<polygon class="st0" points="462.98,1116.7 458.31,1116.7 458.31,1084.25 447.86,1084.25 447.86,1080.15 473.4,1080.15 
		473.4,1084.25 462.98,1084.25 	"/>
	<polygon class="st0" points="542.02,1116.7 520.97,1116.7 520.97,1080.15 542.02,1080.15 542.02,1084.25 525.62,1084.25 
		525.62,1095.55 541.05,1095.55 541.05,1099.6 525.62,1099.6 525.62,1112.6 542.02,1112.6 	"/>
	<path class="st0" d="M611.93,1080.15h4.97l-12.22,36.55H600l-12.18-36.55h4.9l7.38,23.18c0.68,2.12,1.42,4.9,2.2,8.35
		c0.52-2.41,1.29-5.25,2.32-8.5L611.93,1080.15z"/>
	<polygon class="st0" points="683.75,1116.7 662.7,1116.7 662.7,1080.15 683.75,1080.15 683.75,1084.25 667.35,1084.25 
		667.35,1095.55 682.78,1095.55 682.78,1099.6 667.35,1099.6 667.35,1112.6 683.75,1112.6 	"/>
	<path class="st0" d="M756.06,1116.7h-5.38l-14.5-30.25h-0.2c0.3,4.62,0.45,8.09,0.45,10.43v19.82h-4.3v-36.55h5.32l14.45,30.1h0.15
		c-0.23-5.05-0.35-8.42-0.35-10.1v-20h4.35V1116.7z"/>
	<polygon class="st0" points="824.66,1116.7 805.26,1116.7 805.26,1113.63 812.64,1113.13 812.64,1083.72 805.26,1083.22 
		805.26,1080.15 824.66,1080.15 824.66,1083.22 817.31,1083.72 817.31,1113.13 824.66,1113.63 	"/>
	<path class="st0" d="M897.79,1116.7h-5.38l-14.5-30.25h-0.2c0.3,4.62,0.45,8.09,0.45,10.43v19.82h-4.3v-36.55h5.33l14.45,30.1h0.15
		c-0.23-5.05-0.35-8.42-0.35-10.1v-20h4.35V1116.7z"/>
	<path class="st0" d="M958.35,1097.41h10.55v17.93c-3.25,1.25-6.75,1.88-10.5,1.88c-4.37,0-7.78-1.66-10.24-4.99
		c-2.46-3.32-3.69-7.94-3.69-13.84c0-5.85,1.35-10.44,4.05-13.77c2.7-3.32,6.42-4.98,11.15-4.98c3.2,0,6.09,0.72,8.65,2.15
		l-1.8,4.05c-2.43-1.4-4.77-2.1-7-2.1c-3.2,0-5.69,1.3-7.48,3.89c-1.78,2.59-2.67,6.2-2.67,10.81c0,9.8,3.28,14.7,9.85,14.7
		c1.62,0,3.3-0.24,5.05-0.73v-10.9h-5.93V1097.41z"/>
	<path class="st0" d="M1039.3,1111.69v4.05c-2.43,0.98-5.42,1.48-8.95,1.48c-5.15,0-9.09-1.63-11.82-4.9
		c-2.73-3.27-4.1-7.91-4.1-13.92c0-5.77,1.49-10.34,4.48-13.7c2.98-3.36,7.06-5.05,12.22-5.05c3.67,0,6.86,0.72,9.57,2.15l-1.95,3.9
		c-2.57-1.3-5.11-1.95-7.62-1.95c-3.58,0-6.44,1.32-8.57,3.97c-2.13,2.64-3.2,6.22-3.2,10.73c0,4.78,1,8.43,3,10.94
		c2,2.51,4.93,3.77,8.77,3.77C1033.29,1113.14,1036.01,1112.65,1039.3,1111.69z"/>
	<path class="st0" d="M1103.24,1101.33l-3.32-10.6c-0.65-2.07-1.17-3.95-1.55-5.65c-0.33,1.65-0.71,3.18-1.15,4.57l-3.6,11.68
		H1103.24z M1108.16,1116.77l-3.6-11.32h-12.27l-3.65,11.32h-4.75l12.08-36.7h4.88l12.12,36.7H1108.16z"/>
	<path class="st0" d="M1181.25,1116.7h-5.38l-14.5-30.25h-0.2c0.3,4.62,0.45,8.09,0.45,10.43v19.82h-4.3v-36.55h5.32l14.45,30.1
		h0.15c-0.23-5.05-0.35-8.42-0.35-10.1v-20h4.35V1116.7z"/>
	<path class="st0" d="M1232.18,1084.13v28.57h2.4c8.87,0,13.3-4.82,13.3-14.48c0-9.4-4.11-14.1-12.32-14.1H1232.18z M1227.51,1116.7
		v-36.55h8.55c5.28,0,9.39,1.57,12.34,4.73c2.94,3.15,4.41,7.55,4.41,13.2c0,6.02-1.52,10.62-4.57,13.82
		c-3.05,3.2-7.45,4.8-13.2,4.8H1227.51z"/>
	<polygon class="st0" points="959.04,1187.57 954.37,1187.57 954.37,1155.12 943.92,1155.12 943.92,1151.02 969.47,1151.02 
		969.47,1155.12 959.04,1155.12 	"/>
	<path class="st0" d="M1039.3,1182.55v4.05c-2.43,0.98-5.42,1.48-8.95,1.48c-5.15,0-9.09-1.63-11.82-4.9
		c-2.74-3.27-4.1-7.91-4.1-13.92c0-5.77,1.49-10.34,4.47-13.7c2.98-3.36,7.06-5.05,12.23-5.05c3.66,0,6.86,0.72,9.58,2.15l-1.95,3.9
		c-2.57-1.3-5.11-1.95-7.62-1.95c-3.59,0-6.44,1.32-8.57,3.97c-2.14,2.64-3.2,6.22-3.2,10.73c0,4.78,1,8.43,3,10.94
		c2,2.51,4.93,3.77,8.78,3.77C1033.29,1184,1036.01,1183.52,1039.3,1182.55z"/>
	<path class="st0" d="M1098.44,1184.03c2.88,0,5-1.21,6.34-3.62c1.34-2.42,2.01-6.12,2.01-11.12c0-5.05-0.68-8.76-2.04-11.14
		c-1.36-2.37-3.45-3.56-6.26-3.56c-5.62,0-8.43,4.9-8.43,14.7C1090.06,1179.11,1092.85,1184.03,1098.44,1184.03z M1098.44,1188.1
		c-8.87,0-13.3-6.29-13.3-18.88c0-12.5,4.45-18.75,13.35-18.75c4.27,0,7.54,1.63,9.81,4.89c2.27,3.26,3.41,7.9,3.41,13.91
		c0,6.02-1.15,10.66-3.45,13.92C1105.96,1186.47,1102.69,1188.1,1098.44,1188.1z"/>
	<polygon class="st0" points="1159.02,1187.57 1159.02,1151.02 1163.69,1151.02 1163.69,1183.41 1179.57,1183.41 1179.57,1187.57 	
		"/>
	<path class="st0" d="M1232.18,1154.99v28.57h2.4c8.87,0,13.3-4.82,13.3-14.48c0-9.4-4.11-14.1-12.32-14.1H1232.18z
		 M1227.51,1187.57v-36.55h8.55c5.28,0,9.4,1.57,12.34,4.73c2.94,3.15,4.41,7.55,4.41,13.2c0,6.02-1.53,10.62-4.58,13.82
		c-3.05,3.2-7.45,4.8-13.2,4.8H1227.51z"/>
	<path class="st0" d="M188.9,1182.52v4.05c-2.43,0.98-5.42,1.48-8.95,1.48c-5.15,0-9.09-1.63-11.82-4.9
		c-2.73-3.26-4.1-7.91-4.1-13.92c0-5.77,1.49-10.34,4.47-13.7c2.98-3.36,7.06-5.05,12.23-5.05c3.66,0,6.85,0.72,9.57,2.15l-1.95,3.9
		c-2.57-1.3-5.11-1.95-7.62-1.95c-3.59,0-6.44,1.32-8.57,3.97c-2.14,2.64-3.2,6.22-3.2,10.73c0,4.79,1,8.43,3,10.94
		c2,2.51,4.93,3.76,8.78,3.76C182.89,1183.98,185.62,1183.49,188.9,1182.52z"/>
	<path class="st0" d="M248.04,1183.98c2.88,0,5-1.21,6.34-3.62c1.34-2.42,2.01-6.12,2.01-11.12c0-5.05-0.68-8.76-2.04-11.14
		s-3.44-3.56-6.26-3.56c-5.62,0-8.43,4.9-8.43,14.7C239.67,1179.06,242.46,1183.98,248.04,1183.98z M248.04,1188.05
		c-8.87,0-13.3-6.29-13.3-18.88c0-12.5,4.45-18.75,13.35-18.75c4.27,0,7.54,1.63,9.81,4.89c2.27,3.26,3.41,7.9,3.41,13.91
		c0,6.02-1.15,10.66-3.45,13.92C255.57,1186.42,252.29,1188.05,248.04,1188.05z"/>
	<path class="st0" d="M318.91,1184.03c2.88,0,5-1.21,6.34-3.62c1.34-2.42,2.01-6.12,2.01-11.12c0-5.05-0.68-8.76-2.04-11.14
		c-1.36-2.38-3.45-3.56-6.26-3.56c-5.62,0-8.43,4.9-8.43,14.7C310.53,1179.11,313.33,1184.03,318.91,1184.03z M318.91,1188.1
		c-8.87,0-13.3-6.29-13.3-18.88c0-12.5,4.45-18.75,13.35-18.75c4.27,0,7.54,1.63,9.81,4.89c2.27,3.26,3.41,7.9,3.41,13.91
		c0,6.02-1.15,10.66-3.45,13.92C326.44,1186.47,323.16,1188.1,318.91,1188.1z"/>
	<polygon class="st0" points="379.49,1187.55 379.49,1151 384.16,1151 384.16,1183.4 400.04,1183.4 400.04,1187.55 	"/>
	<polygon class="st0" points="896.35,691.5 875.3,691.5 875.3,654.95 896.35,654.95 896.35,659.05 879.95,659.05 879.95,670.35 
		895.38,670.35 895.38,674.4 879.95,674.4 879.95,687.4 896.35,687.4 	"/>
	<polygon class="st0" points="959.04,691.5 954.37,691.5 954.37,659.05 943.92,659.05 943.92,654.95 969.47,654.95 969.47,659.05 
		959.04,659.05 	"/>
	<path class="st0" d="M458.47,1162.39h4.42l3.62,13.02c1.02,3.65,1.62,6.21,1.8,7.68c0.04-0.88,0.58-6.04,1.62-15.48l1.75-16.57
		h4.25l-4.67,36.55h-4.75l-4.2-14.5c-0.66-2.3-1.21-4.65-1.65-7.05c-0.53,2.88-1.07,5.25-1.62,7.1l-3.9,14.45h-4.75l-5.08-36.55
		h4.25l2.2,16.57c0.39,2.93,0.72,6.09,1,9.45c0.29,3.37,0.42,5.38,0.42,6.03c0.4-2.52,0.99-5.12,1.75-7.8L458.47,1162.39z"/>
	<path class="st0" d="M536.31,1172.21l-3.32-10.6c-0.65-2.07-1.17-3.95-1.55-5.65c-0.33,1.65-0.72,3.17-1.15,4.58l-3.6,11.67H536.31
		z M541.23,1187.66l-3.6-11.33h-12.27l-3.65,11.33h-4.75l12.07-36.7h4.88l12.12,36.7H541.23z"/>
	<path class="st0" d="M594.72,1168.54h4.1c2.85,0,4.95-0.55,6.3-1.65c1.35-1.1,2.02-2.85,2.02-5.25c0-2.35-0.66-4.04-2-5.08
		c-1.33-1.03-3.48-1.55-6.45-1.55h-3.98V1168.54z M594.72,1172.49v15.1h-4.67v-36.55h8.92c8.67,0,13,3.46,13,10.38
		c0,4.78-2.41,8.05-7.22,9.8l9.93,16.38h-5.48l-8.75-15.1H594.72z"/>
	<path class="st0" d="M671.17,1187.59l-6.95-32h-0.2c0.3,4.43,0.45,7.82,0.45,10.15v21.85h-3.78v-36.55h6.18l6.2,29.8h0.15
		l6.25-29.8h6.3v36.55h-3.83v-22.18c0-1.7,0.12-4.96,0.35-9.77h-0.2l-7.07,31.95H671.17z"/>
	<polygon class="st0" points="756.08,1187.59 751.41,1187.59 751.41,1170.54 736.78,1170.54 736.78,1187.59 732.11,1187.59 
		732.11,1151.04 736.78,1151.04 736.78,1166.44 751.41,1166.44 751.41,1151.04 756.08,1151.04 	"/>
	<path class="st0" d="M814.97,1184.03c2.88,0,5-1.21,6.34-3.62c1.34-2.42,2.01-6.12,2.01-11.12c0-5.05-0.68-8.76-2.04-11.14
		c-1.36-2.38-3.45-3.56-6.26-3.56c-5.62,0-8.43,4.9-8.43,14.7C806.6,1179.11,809.39,1184.03,814.97,1184.03z M814.97,1188.1
		c-8.87,0-13.3-6.29-13.3-18.88c0-12.5,4.45-18.75,13.35-18.75c4.27,0,7.54,1.63,9.81,4.89c2.27,3.26,3.41,7.9,3.41,13.91
		c0,6.02-1.15,10.66-3.45,13.92C822.5,1186.47,819.22,1188.1,814.97,1188.1z"/>
	<polygon class="st0" points="888.18,1187.57 883.5,1187.57 883.5,1155.12 873.05,1155.12 873.05,1151.02 898.6,1151.02 
		898.6,1155.12 888.18,1155.12 	"/>
	<path class="st0" d="M261.32,939.21c1.57-2.22,3.02-4.73,4.35-7.53h5.48v0.53c-1.87,2.88-4.14,5.44-6.8,7.67h-3.03V939.21z"/>
	<polygon class="st0" points="896.35,833.24 875.3,833.24 875.3,796.69 896.35,796.69 896.35,800.78 879.95,800.78 879.95,812.08 
		895.38,812.08 895.38,816.14 879.95,816.14 879.95,829.14 896.35,829.14 	"/>
	<polygon class="st0" points="946.42,833.24 946.42,796.69 951.09,796.69 951.09,829.08 966.97,829.08 966.97,833.24 	"/>
	<polygon class="st0" points="1038.08,833.24 1017.03,833.24 1017.03,796.69 1038.08,796.69 1038.08,800.78 1021.69,800.78 
		1021.69,812.08 1037.11,812.08 1037.11,816.14 1021.69,816.14 1021.69,829.14 1038.08,829.14 	"/>
	<path class="st0" d="M1107.99,796.69h4.98l-12.23,36.55h-4.68l-12.17-36.55h4.9l7.38,23.18c0.68,2.12,1.42,4.9,2.2,8.35
		c0.52-2.41,1.29-5.25,2.32-8.5L1107.99,796.69z"/>
	<polygon class="st0" points="1179.82,833.24 1158.77,833.24 1158.77,796.69 1179.82,796.69 1179.82,800.78 1163.41,800.78 
		1163.41,812.08 1178.84,812.08 1178.84,816.14 1163.41,816.14 1163.41,829.14 1179.82,829.14 	"/>
	<path class="st0" d="M1252.12,833.24h-5.38l-14.5-30.25h-0.2c0.3,4.62,0.45,8.09,0.45,10.42v19.83h-4.3v-36.55h5.32l14.45,30.1
		h0.15c-0.23-5.05-0.35-8.41-0.35-10.1v-20h4.35V833.24z"/>
	<circle class="st0" cx="177.17" cy="1240.16" r="5.67"/>
	<circle class="st0" cx="1240.16" cy="1240.16" r="5.67"/>
	<circle class="st0" cx="1098.43" cy="1240.16" r="5.67"/>
	<circle class="st0" cx="1027.56" cy="1240.16" r="5.67"/>
	<circle class="st0" cx="956.64" cy="1240.16" r="5.67"/>
	<circle class="st0" cx="885.83" cy="1240.16" r="5.67"/>
	<circle class="st0" cx="814.96" cy="1240.16" r="5.67"/>
	<circle class="st0" cx="744.09" cy="1240.16" r="5.67"/>
	<circle class="st0" cx="673.23" cy="1240.16" r="5.67"/>
	<circle class="st0" cx="602.36" cy="1240.16" r="5.67"/>
	<circle class="st0" cx="531.5" cy="1240.16" r="5.67"/>
	<circle class="st0" cx="460.63" cy="1240.16" r="5.67"/>
	<circle class="st0" cx="389.76" cy="1240.16" r="5.67"/>
	<circle class="st0" cx="318.9" cy="1240.16" r="5.67"/>
	<circle class="st0" cx="248.03" cy="1240.16" r="5.67"/>
	<circle class="st0" cx="1169.29" cy="1240.16" r="5.67"/>
	<path class="st0" d="M181.98,605.26l-3.33-10.6c-0.65-2.07-1.16-3.95-1.55-5.65c-0.34,1.65-0.72,3.18-1.15,4.58l-3.6,11.67H181.98z
		 M186.9,620.71l-3.6-11.33h-12.28l-3.65,11.33h-4.75l12.07-36.7h4.88l12.13,36.7H186.9z"/>
	<rect x="137.48" y="1240.16" class="st1" width="2.83" height="40.72"/>
	<rect x="137.48" y="1278.04" class="st1" width="360" height="2.83"/>
	<rect x="494.65" y="1240.16" class="st1" width="2.83" height="40.72"/>
	<rect x="565.51" y="1240.16" class="st1" width="2.83" height="40.72"/>
	<rect x="990.71" y="1240.16" class="st1" width="2.83" height="40.72"/>
	<rect x="1061.57" y="1240.16" class="st1" width="2.83" height="40.72"/>
	<rect x="1274.17" y="1240.16" class="st1" width="2.83" height="40.72"/>
	<rect x="565.51" y="1278.04" class="st1" width="428.03" height="2.83"/>
	<rect x="1061.57" y="1278.04" class="st1" width="215.43" height="2.83"/>
	<rect x="317.48" y="1281.68" class="st1" width="2.83" height="14.17"/>
	<rect x="778.11" y="1280.53" class="st1" width="2.83" height="14.17"/>
	<rect x="778.11" y="1281.68" class="st1" width="2.83" height="14.17"/>
	<rect x="1167.87" y="1281.68" class="st1" width="2.83" height="14.17"/>
	<rect x="137.48" y="1240.16" class="st1" width="2.83" height="40.72"/>
	<line class="st1" x1="497.48" y1="1278.04" x2="137.48" y2="1278.04"/>
	<rect x="494.65" y="1240.16" class="st1" width="2.83" height="40.72"/>
	<rect x="137.48" y="1240.16" class="st1" width="2.83" height="40.72"/>
	<line class="st1" x1="497.48" y1="1278.04" x2="137.48" y2="1278.04"/>
	<rect x="494.65" y="1240.16" class="st1" width="2.83" height="40.72"/>
	<rect x="281.5" y="1302.95" class="st2" width="104.11" height="35.04"/>
	<text transform="matrix(1 0 0 1 281.4987 1311.8347)" class="st3 st4">HOUR</text>
	<text transform="matrix(1 0 0 1 733.6138 1311.7056)" class="st3 st4">MINUTE</text>
	<text transform="matrix(1 0 0 1 1144.5924 1311.7056)" class="st3 st4">SEC</text>
</g>
</svg>
